<svg xmlns="http://www.w3.org/2000/svg" width="637" height="470" viewBox="0 0 637 470">
    <defs>
        <linearGradient id="a" x1="68.167%" x2="-18.113%" y1="11.33%" y2="147.524%">
            <stop offset="0%" stop-opacity="0"/>
            <stop offset="99%"/>
        </linearGradient>
        <linearGradient id="b" x1="48.2%" x2="52.716%" y1="0%" y2="74.709%">
            <stop offset="0%" stop-color="#7E00CF"/>
            <stop offset="100%" stop-color="#F05047"/>
        </linearGradient>
        <linearGradient id="c" x1="48.352%" x2="52.487%" y1="0%" y2="74.709%">
            <stop offset="0%" stop-color="#7E00CF"/>
            <stop offset="100%" stop-color="#F05047"/>
        </linearGradient>
        <linearGradient id="d" x1="0%" x2="99.675%" y1="49.984%" y2="49.984%">
            <stop offset="0%" stop-color="#E5C5D5"/>
            <stop offset="42%" stop-color="#EAD4D1"/>
            <stop offset="100%" stop-color="#F0E9CB"/>
        </linearGradient>
        <linearGradient id="e" x1="-.031%" x2="99.622%" y1="49.847%" y2="49.847%">
            <stop offset="0%" stop-color="#E5C5D5"/>
            <stop offset="42%" stop-color="#EAD4D1"/>
            <stop offset="100%" stop-color="#F0E9CB"/>
        </linearGradient>
        <linearGradient id="f" x1="42.567%" x2="61.219%" y1="0%" y2="74.709%">
            <stop offset="0%" stop-color="#7E00CF"/>
            <stop offset="100%" stop-color="#F05047"/>
        </linearGradient>
        <linearGradient id="g" x1="44.012%" x2="59.038%" y1="0%" y2="74.709%">
            <stop offset="0%" stop-color="#7E00CF"/>
            <stop offset="100%" stop-color="#F05047"/>
        </linearGradient>
        <linearGradient id="h" x1="38.306%" x2="76.811%" y1="57.019%" y2="22.854%">
            <stop offset="0%" stop-opacity="0"/>
            <stop offset="99%"/>
        </linearGradient>
        <linearGradient id="i" x1="16.873%" y1="6.888%" y2="71.305%">
            <stop offset="0%" stop-color="#7E00CF"/>
            <stop offset="100%" stop-color="#F05047"/>
        </linearGradient>
        <linearGradient id="j" x1="29.058%" x2="69.669%" y1="89.572%" y2="-19.793%">
            <stop offset="0%" stop-opacity="0"/>
            <stop offset="99%"/>
        </linearGradient>
        <linearGradient id="k" x1="48.434%" x2="52.363%" y1="0%" y2="74.709%">
            <stop offset="0%" stop-color="#7E00CF"/>
            <stop offset="100%" stop-color="#F05047"/>
        </linearGradient>
        <linearGradient id="l" x1="72.387%" x2="7.519%" y1="58.06%" y2="39.489%">
            <stop offset="0%" stop-opacity="0"/>
            <stop offset="99%"/>
        </linearGradient>
        <linearGradient id="m" x1="97.071%" x2="-5.825%" y1="0%" y2="100%">
            <stop offset="0%" stop-color="#EF504A"/>
            <stop offset="100%" stop-color="#8103CB"/>
        </linearGradient>
        <linearGradient id="n" x1="16.873%" y1="2.105%" y2="73.669%">
            <stop offset="0%" stop-color="#7E00CF"/>
            <stop offset="100%" stop-color="#F05047"/>
        </linearGradient>
        <linearGradient id="o" x1="97.071%" x2="-5.825%" y1="32%" y2="68%">
            <stop offset="0%" stop-color="#EF504A"/>
            <stop offset="100%" stop-color="#8103CB"/>
        </linearGradient>
        <linearGradient id="p" x1="97.071%" x2="-5.825%" y1="49.944%" y2="50.056%">
            <stop offset="0%" stop-color="#EF504A"/>
            <stop offset="100%" stop-color="#8103CB"/>
        </linearGradient>
        <linearGradient id="q" x1="50.062%" x2="49.926%" y1="0%" y2="100%">
            <stop offset="0%" stop-color="#EF504A"/>
            <stop offset="100%" stop-color="#8103CB"/>
        </linearGradient>
        <linearGradient id="r" x1="97.071%" x2="-5.825%" y1="49.951%" y2="50.049%">
            <stop offset="0%" stop-color="#EF504A"/>
            <stop offset="100%" stop-color="#8103CB"/>
        </linearGradient>
        <linearGradient id="s" x1="56.616%" x2="42.154%" y1="0%" y2="100%">
            <stop offset="0%" stop-color="#EF504A"/>
            <stop offset="100%" stop-color="#8103CB"/>
        </linearGradient>
        <linearGradient id="t" x1="97.071%" x2="-5.825%" y1="48%" y2="52%">
            <stop offset="0%" stop-color="#EF504A"/>
            <stop offset="100%" stop-color="#8103CB"/>
        </linearGradient>
        <linearGradient id="u" x1="56.611%" x2="42.159%" y1="0%" y2="100%">
            <stop offset="0%" stop-color="#EF504A"/>
            <stop offset="100%" stop-color="#8103CB"/>
        </linearGradient>
        <linearGradient id="v" x1="97.071%" x2="-5.825%" y1="48.98%" y2="51.02%">
            <stop offset="0%" stop-color="#EF504A"/>
            <stop offset="100%" stop-color="#8103CB"/>
        </linearGradient>
        <linearGradient id="w" x1="80.113%" x2="14.287%" y1="0%" y2="100%">
            <stop offset="0%" stop-color="#EF504A"/>
            <stop offset="100%" stop-color="#8103CB"/>
        </linearGradient>
        <linearGradient id="x" x1="80.136%" x2="14.26%" y1="0%" y2="100%">
            <stop offset="0%" stop-color="#EF504A"/>
            <stop offset="100%" stop-color="#8103CB"/>
        </linearGradient>
        <linearGradient id="y" x1="97.071%" x2="-5.825%" y1="48.611%" y2="51.389%">
            <stop offset="0%" stop-color="#EF504A"/>
            <stop offset="100%" stop-color="#8103CB"/>
        </linearGradient>
        <linearGradient id="z" x1="61.768%" x2="36.044%" y1="0%" y2="100%">
            <stop offset="0%" stop-color="#EF504A"/>
            <stop offset="100%" stop-color="#8103CB"/>
        </linearGradient>
        <linearGradient id="A" x1="70.921%" x2="25.189%" y1="0%" y2="100%">
            <stop offset="0%" stop-color="#EF504A"/>
            <stop offset="100%" stop-color="#8103CB"/>
        </linearGradient>
        <linearGradient id="B" x1="70.893%" x2="25.222%" y1="0%" y2="100%">
            <stop offset="0%" stop-color="#EF504A"/>
            <stop offset="100%" stop-color="#8103CB"/>
        </linearGradient>
    </defs>
    <g fill="none" fill-rule="evenodd">
        <g transform="translate(0 45)">
            <path fill="#FF536B" fill-rule="nonzero" d="M143.324 146.861a3.231 3.231 0 0 1 2.603.26c.505.494.835 1.147.94 1.855a36.842 36.842 0 0 1 1.102 7.94 7.332 7.332 0 0 1-.506 3.432 7.83 7.83 0 0 1-2.585 2.727 350.94 350.94 0 0 1-40.735 26.62c-.597.335-6.019-18.55-6.109-20.406-.29-4.971 1.247-7.216 5.422-9.46 11.946-6.345 26.783-10.39 39.868-12.968z"/>
            <path fill="url(#a)" fill-rule="nonzero" d="M143.325 146.868a3.162 3.162 0 0 1 2.602.26c.505.493.836 1.146.94 1.854a36.83 36.83 0 0 1 1.102 7.939 7.368 7.368 0 0 1-.506 3.431 7.791 7.791 0 0 1-2.584 2.708 348.688 348.688 0 0 1-40.736 26.636c-.597.333-6.019-18.549-6.109-20.403-.29-4.971 1.247-7.216 5.422-9.46 11.946-6.362 26.784-10.387 39.869-12.965z"/>
            <path fill="#191847" fill-rule="nonzero" d="M244.941 319.414c1.719.317 3.366.938 4.866 1.834a4.64 4.64 0 0 1 2.166 4.439c-.55 2.843-4.167 3.668-7.05 3.833a167.225 167.225 0 0 1-34.259-1.632c-1.046-.165-2.313-.257-2.974.568-.66.826-.44 1.468-.68 2.201-.789 2.477-4.552 2.623-6.462.863a12.833 12.833 0 0 1-2.956-7.026 102.748 102.748 0 0 0-10.428-28.173 27.5 27.5 0 0 1-2.937-6.548c-1.542-6.402 5.085-11.74 10.63-7.63 4.975 3.668 8.335 11.206 12.852 15.7a84.27 84.27 0 0 0 37.232 21.57zM179.905 390.438a20.885 20.885 0 0 0 .404 7.32 5.69 5.69 0 0 0 5.363 4.265c3.27-.293 4.812-4.1 5.657-7.321 11.772 9.572 28.523 10.194 43.546 7.852a2.65 2.65 0 0 0 1.837-.77c.973-1.225-.717-2.8-2.13-3.476l-24.703-11.696c-5.822-2.763-11.883-5.728-15.63-10.98-2.773-3.863-8.081-23.427-15.373-12.812-4.867 7.083 1.304 19.93 1.029 27.618z"/>
            <path fill="#8A09BF" fill-rule="nonzero" d="M98 271.967l37.176 13.193a12.686 12.686 0 0 1 6.074 3.54 12.753 12.753 0 0 1 2.012 5.474 714.876 714.876 0 0 1 10.447 74.252 79.271 79.271 0 0 0 35.31.547 3.771 3.771 0 0 0 2.671-1.46 3.641 3.641 0 0 0 .293-1.825c-.476-28.795-3.66-57.955-14.637-84.634a30.463 30.463 0 0 0-7.464-11.934c-3.659-3.139-8.36-4.562-12.807-6.369-7.318-3.029-14.508-7.299-22.485-7.974-11.745-.912-22.576 6.423-30.864 14.78-1.683-.145-4.244 1.607-5.726 2.41z"/>
            <path fill="#AAA" fill-rule="nonzero" d="M57 299h8v86h-8z"/>
            <path fill="#AAA" fill-rule="nonzero" d="M35 384h52v11H35zM284 267.7h8v83h-8z"/>
            <path fill="#AAA" fill-rule="nonzero" d="M260 349.7h52v11h-52z"/>
            <path fill="#3E3E54" fill-rule="nonzero" d="M261.378 234.32a33.316 33.316 0 0 0-2.239 6.148c-.518 2.161.435 4.395 2.42 5.671a6.176 6.176 0 0 0 2.299.55c2.33.114 4.593-.727 6.17-2.293 1.53-1.79 2.504-3.919 2.822-6.167a51.276 51.276 0 0 0 .867-16.169c-.443-4.202-5.121-9.176-8.81-4.423-3.267 4.277-1.695 11.783-3.53 16.683z"/>
            <path fill="#FFDCDB" fill-rule="nonzero" d="M246.606 230.814c-4.735 4.286 2.147 21.191 5.891 26.357 3.744 5.165 6.68 10.99 12.847 12.62a117.795 117.795 0 0 0 23.125 2.875c16.756.916 33.568 1.392 50.343.714a106.21 106.21 0 0 0 22.023-2.655c4.662-1.191 9.654-3.352 11.49-7.785 1.706-4.121 0-9.03-3.102-12.198a27.161 27.161 0 0 0-11.673-6.246c-15.288-4.744-31.457-5.092-47.35-5.348-7.82-.11-15.73 0-23.53-.825-4.936-.494-9.708-1.612-14.682-1.264-6.589.477-20.225-10.88-25.382-6.245z"/>
            <path fill="#FFD9D8" fill-rule="nonzero" d="M276.914 260.707c6.118 4.14 13.482 4.083 20.498 3.953l40.154-.839c4.598-.093 9.343-.224 13.556-2.48 7.108-3.728 11.54-14.225 9.288-23.23a9.36 9.36 0 0 0-3.023-5.332 8.427 8.427 0 0 0-5.587-.988c-20.828 1.193-47.354-6.153-68.182-4.96-4.873.28-12.072 6.88-15.534 12.753-4.048 6.88 4.213 18.01 8.83 21.123z"/>
            <path fill="url(#b)" d="M297.21 346.294c.159 2.446.6 5.294 2.791 6.407.993.411 2.06.598 3.128.548l13.323.42c.76.105 1.53-.056 2.191-.457a3.163 3.163 0 0 0 .954-2.044c2.969-16.247 2.845-95.165 5.301-115.282 1.149-9.821-7.58-13.016-18.995-14.933-9.86-1.661-12.086 5.093-11.892 13.308.619 24.152.195 48.285 1.167 72.437.459 13.205 1.136 26.403 2.032 39.596z"/>
            <path fill="url(#c)" d="M335.196 361.974c.176 2.531.6 5.463 2.81 6.684a7.01 7.01 0 0 0 3.13.582l13.312.42a3.174 3.174 0 0 0 2.21-.456 3.452 3.452 0 0 0 .937-2.13c2.987-16.992 2.864-99.47 5.303-120.486 1.15-10.271-7.584-13.622-18.987-15.625-9.882-1.73-12.11 5.335-11.898 13.913.62 25.24.195 50.463 1.15 75.704.471 13.804 1.149 27.602 2.033 41.394z"/>
            <path fill="#B3248F" fill-rule="nonzero" d="M577.047 192.44c-3.053 42.903-27.42 83.672-22.357 126.392 1.426 12.203 5.283 24.297 4.168 36.482-1.188 12.878-.366 25.865-.366 38.798a7.027 7.027 0 0 0 .53 3.32 6.01 6.01 0 0 0 2.505 2.207 17.381 17.381 0 0 0 12.083 1.624 527.036 527.036 0 0 0 5.649-66.543c.146-7.06.164-14.228 2.084-21.014a76.215 76.215 0 0 1 5.868-13.644 3939.685 3939.685 0 0 0 18.097-35.807l5.941-11.802 5.484-10.944c4.406-9.23 8.41-19.007 8.263-29.186-.11-7.15-2.705-14.757-8.628-18.77-4.278-2.9-9.652-3.648-14.807-3.812-7.276-.365-17.33 1.806-24.514 2.7z"/>
            <path fill="#B3248F" fill-rule="nonzero" d="M620.23 247.011c-1.151 10.095-3.601 20.007-4.752 30.102-.816 7.316-.965 14.63-1.057 21.946-.446 31.7-.155 63.399.872 95.098 0 2.36 0 4.974-1.503 6.748-2.413 2.689-6.793 1.83-10.263.805-1.856-26.847-9.743-57.882-11.543-84.71-1.04-15.27-8.444-30.615-7.961-45.903.482-14.63 14.846-25.128 20.506-38.68 1.708-4.115 8.37-18.288 15.05-12.235 4.64 4.298 1.3 21.142.65 26.83z"/>
            <path fill="url(#d)" fill-rule="nonzero" d="M558.036 413.226c-1.233 1.117-3 2.086-3.036 3.726a4.17 4.17 0 0 0 .68 2.049 2.93 2.93 0 0 0 1.473 1.602c.482.13.99.13 1.471 0l7.36-1.64a9.53 9.53 0 0 0 3.403-1.266c2.374-1.714 2.595-5.123 2.613-8.067v-4.582c0-3.018-.092-6.93-3.036-8.644a4.18 4.18 0 0 0-5.795 1.155c-3.017 4.676-.552 11.438-5.133 15.667z"/>
            <path fill="#3E3E54" fill-rule="nonzero" d="M548.58 418.668a3.574 3.574 0 0 0-1.528 1.791 2.552 2.552 0 0 0 .977 2.56 5.842 5.842 0 0 0 2.65 1.057c2.069.329 4.162.478 6.257.448l11.341.143a3.712 3.712 0 0 0 2.525-.573c.592-.626.94-1.446.978-2.31.234-1.696.282-3.414.142-5.121a1.132 1.132 0 0 0-.338-.824.954.954 0 0 0-.8-.09c-3.662.627-9.066 4.048-12.444 1.451-1.155-.895-1.778-1.558-3.395-1.325a16.171 16.171 0 0 0-6.364 2.793z"/>
            <path fill="url(#e)" fill-rule="nonzero" d="M593.187 414.382c-.632.376-1.281 1.003-1.176 1.79.106.788 1.228 1.253 2.14 1.343 3.428.365 6.89.19 10.264-.52a9.882 9.882 0 0 0 4-1.557c2.44-1.79 3.088-5.227 3.37-8.306.522-2.807.089-5.713-1.229-8.234-2.632-4.01-7.369 3.115-8.035 5.746a12.399 12.399 0 0 1-2.808 6.39c-1.824 1.701-4.438 2.077-6.526 3.348z"/>
            <path fill="#3E3E54" fill-rule="nonzero" d="M605.58 410.269c-.82-.584-1.532-1.509-2.518-1.569a3.205 3.205 0 0 0-1.989.784c-3.101 2.011-6.149 4.324-9.123 6.657a8.705 8.705 0 0 0-2.372 2.433 3.582 3.582 0 0 0-.273 3.399c.423.716 1.074 1.232 1.824 1.448a8.948 8.948 0 0 0 4.434 0c6.715-1.227 14.506-2.011 20.856-4.746 4.762-2.011 2.28-8.205-2.153-8.266-2.938-.06-5.821 1.87-8.686-.14z"/>
            <path fill="#FFDCDB" fill-rule="nonzero" d="M244.11 152.667l-.853 34.101c-.473 18.428-.873 37.418 4.415 54.614a21.959 21.959 0 0 0 5.288 9.965 15.294 15.294 0 0 0 9.868 3.262c9.086.525 18.935-1.07 25.441-8.897 5.76-6.831 7.923-17.123 8.886-26.98a308.435 308.435 0 0 0 .31-40.987c-.437-12.014-1.091-24.843-6.87-34.428a51.38 51.38 0 0 0-9.758-11.09c-16.737-15.582-36-6.106-36.726 20.44z"/>
            <ellipse cx="346" cy="204.2" fill="#9F55B3" fill-rule="nonzero" rx="213" ry="22.5"/>
            <path fill="#7E3D8F" fill-rule="nonzero" d="M559 211.327c0 12.911-95.356 23.373-213 23.373s-213-10.443-213-23.373c0-1.235.873-2.45 2.547-3.627 15.847 11.203 104.035 19.766 210.453 19.766s194.678-8.563 210.471-19.766c1.674 1.177 2.529 2.392 2.529 3.627z"/>
            <path fill="#FBEAFF" fill-rule="nonzero" d="M555 208.69c-15.888 10.775-104.319 19.01-211.01 19.01-106.69 0-195.175-8.235-210.99-19.01 15.888-10.755 104.3-18.99 210.99-18.99 106.691 0 195.122 8.235 211.01 18.99z"/>
            <path fill="#FFD0CA" d="M626.177 107.273A37.264 37.264 0 0 1 630 120.19a32.06 32.06 0 0 1-2.356 12.152 211.875 211.875 0 0 1-11.468 25.359c1.082-2.128-.593-9.096-.75-11.515-.245-4.014-.471-8.04-.68-12.08-.431-8.246-.798-16.499-1.1-24.758-.14-3.91-2.584-15.99 3.054-17.555 4.713-1.31 7.82 11.661 9.477 15.481z"/>
            <path fill="url(#f)" d="M567.81 153.158c.628-4.31.854-8.67.677-13.021a60.09 60.09 0 0 0-.987-11.174c-1.59-7.498-5.81-14.488-5.482-22.203.293-8.548 6.049-15.828 11.549-22.439a47.507 47.507 0 0 1 7.2-7.48 16.22 16.22 0 0 1 9.574-3.621c6.36 0 13.211-1.956 18.383 1.72 5.17 3.677 6.98 10.468 7.967 16.752 4.056 26.025.383 52.737 3.654 78.87 1.261 10.124 3.655 20.102 4.55 30.262a3.866 3.866 0 0 1-.676 3.224 3.842 3.842 0 0 1-2.357.779 167.974 167.974 0 0 1-48.003-1.993 2.864 2.864 0 0 1-1.626-.688 2.864 2.864 0 0 1-.548-1.467c-2.668-15.502-6.506-32.09-3.874-47.52z"/>
            <path fill="#FFD0CA" d="M114.73 85.724c.36 1.085.36 2.26 0 3.345-.591 1.261-2.043 1.828-3.065 2.76-2.546 2.321-2.116 6.452-3.407 9.67-1.962 4.418-6.93 6.552-11.402 4.898a3.283 3.283 0 0 0-1.793-.42c-.495.166-.92.502-1.2.95-1.794 2.486-1.794 6.214-3.945 8.335a6.038 6.038 0 0 1-6.49.859 10.751 10.751 0 0 1-4.84-4.862c-3.586-6.434-2.672-14.312-1.794-21.605.879-7.293 1.793-14.184 4.482-20.728a13.552 13.552 0 0 1 3.407-5.3c2.546-2.194 6.095-2.541 9.412-2.742a29.73 29.73 0 0 1 9.61.493c9.753 2.632 9.233 16.012 11.026 24.347z"/>
            <path fill="#7E3D8F" d="M114.549 55.126a4.636 4.636 0 0 1 2.448 3.608 5.958 5.958 0 0 1-3.143 5.413 13.83 13.83 0 0 1-6.433 1.57 42.935 42.935 0 0 0-6.652.487 8.459 8.459 0 0 0-5.482 3.337c-1.609 2.472-1.152 5.684-1.133 8.624a4.657 4.657 0 0 1-.476 2.454 1.836 1.836 0 0 1-2.174.92 2.708 2.708 0 0 1-1.06-1.01 34.445 34.445 0 0 0-2.266-3.374 4.604 4.604 0 0 0-3.436-1.804 4.439 4.439 0 0 0-3.143 1.678 5.545 5.545 0 0 0-1.408 2.959c-.31 2.417 1.28 4.655 2.778 6.585a15.879 15.879 0 0 1-6.652 6.423 4.857 4.857 0 0 1-2.577.704c-1.59-.145-2.704-1.588-3.655-2.887l-6.725-9.779a11.46 11.46 0 0 1-2.358-5.196 11.59 11.59 0 0 1 1.426-5.81 38.877 38.877 0 0 1 5.83-10.175 51.012 51.012 0 0 0 4.824-8.029 11.512 11.512 0 0 1 7.182-5.99c3.327-.631 6.598 1.137 9.924 1.804 3.326.668 6.89.289 10.27.938 4.514.939 10.015 4.457 14.09 6.55z"/>
            <path fill="#FFF" fill-rule="nonzero" d="M83.377 110.805a16.628 16.628 0 0 1 5.38 5.587c1.901 3.724 1.238 8.193.52 12.308-7.814-4.257-14.691-10.154-20.194-17.317-2.045-2.812-1.274-7.951 2.995-7.672 3.73.205 8.501 5.028 11.299 7.094z"/>
            <path fill="url(#g)" d="M87.502 126.34a27.412 27.412 0 0 1 3.79 5.202c1.459 2.773 16.095 49.663 16.514 52.564a34.7 34.7 0 0 1-.11 8.247l-4.119 44.317a4.17 4.17 0 0 1-.656 2.265 4.105 4.105 0 0 1-1.822 1.106l-29.29 10.875a75.474 75.474 0 0 1-13.396 4.042 22.814 22.814 0 0 0-9.75 4.042c-5.031 3.625-6.653 14.627-11.028 14.7-3.335-9.425 7.455-47.706 9.314-54.721 6.561-24.886-2.023-51.005-2.388-76.743a51.814 51.814 0 0 1 1.094-12.688c2.078-8.81 8.548-18.126 17.078-21.95 2.807-1.233 2.424-1.378 5.34.725a94.403 94.403 0 0 1 6.707 5.437 126.857 126.857 0 0 1 12.722 12.58z"/>
            <path fill="url(#h)" fill-rule="nonzero" d="M58 163.605l26.312 53.615.56 29.48s18.51-5.98 19.412-15.085c.903-9.106 1.716-28.716 1.716-28.716L64.628 152.7 58 163.605z"/>
            <path fill="url(#i)" d="M54.868 129.998a150.218 150.218 0 0 0-1.852 25.786 22.79 22.79 0 0 0 .666 5.92 23.528 23.528 0 0 0 3.704 6.817 289.186 289.186 0 0 0 35.187 41.236 9.265 9.265 0 0 0 4.185 2.785c1.139.21 2.307.21 3.445 0l47.428-6.854a2.98 2.98 0 0 0 2.66-1c.656-.761.875-1.8.581-2.757l-1.204-14.222a151.04 151.04 0 0 1-45.483-2.84 10.17 10.17 0 0 1-4.556-1.833 10.26 10.26 0 0 1-2.352-3.904c-6.704-15.486-13.315-30.99-20.075-46.44-1.852-4.399-3.908-9.512-9.26-10.666-6.093-1.393-12.019 1.76-13.074 7.972z"/>
            <path fill="#FFF" fill-rule="nonzero" d="M150.743 190.884c1.762-.29 3.955-.407 4.959.989.354.594.557 1.258.594 1.94.267 1.939.471 4.033.594 6.07.291 1.975 0 3.988-.84 5.817-3.197 0-6.414-.097-9.61-.29-.454 0-.9-.114-1.292-.33a2.466 2.466 0 0 1-.635-.97c-1.045-2.56-3.3-7.757-2.234-10.472 1.066-2.715 6.107-2.424 8.464-2.754z"/>
            <path fill="#FFD0CA" d="M162.277 187.632a19.58 19.58 0 0 1 5.95-2.826c3.193-.415 6.425.4 9.027 2.279 2.671 1.713 4.993 3.901 7.7 5.578 2.709 1.678 5.97 2.954 8.401 5.16.35.253.581.633.645 1.057 0 .583-.516 1.003-1.05 1.258-3.113 1.513-6.816.547-10.188-.274-2.708-.656-5.729-1.166-8.105.237-2.027 1.185-3.224 3.647-5.527 4.358a8.132 8.132 0 0 1-4.33-.11 63.49 63.49 0 0 1-11.2-3.646 4.614 4.614 0 0 1-1.492-.911c-1.843-1.824-1.29-6.655.94-8.022a22.822 22.822 0 0 1 3.684-1.422 41.204 41.204 0 0 0 5.545-2.716z"/>
            <path fill="#8A09BF" fill-rule="nonzero" d="M147.9 220.914c3.699-2.308 8.588-1.228 10.942 2.418a404.176 404.176 0 0 1 39.465 51.665c.348.458.585.989.693 1.552a3.873 3.873 0 0 1-1.824 3.032l-13.094 11.91a3.659 3.659 0 0 1-2.28 1.209 3.664 3.664 0 0 1-1.95-.92l-34.87-26.383a5.66 5.66 0 0 0-2.99-1.444 5.333 5.333 0 0 0-2.28.578c-5.964 2.58-11.307 6.388-17.216 9.13-13.04 6.046-27.957 6.497-42.364 6.245-14.134-.253-28.505-1.137-41.708-6.1-2.7-1.01 8.17-20.337 13.386-20.807a84.496 84.496 0 0 0 25.532-6.46c6.291-2.707 12.291-6.316 18.948-8.139 4.212-1.154 3.848-5.413 7.987-6.911 13.131-4.566 30.42-6.172 43.623-10.575z"/>
            <path fill="#FFDCDB" fill-rule="nonzero" d="M27.746 164.738c3.542 9.713 3.816 20.262 4.035 30.592l1.423 66.35c-.07 1.902.208 3.8.822 5.602 2.318 5.766 9.985 6.657 16.21 6.657h50.2c5.695 0 11.682 0 16.666 2.8 4.983 2.802 8.525 9.095 6.133 14.206-2.701 5.874-10.587 6.71-17.068 6.71h-82.82c-2.208.183-4.425-.2-6.444-1.109-3.65-2-4.363-6.693-4.764-10.767L.438 166.921c-.657-6.748-1.826-22.19 7.301-23.19 8.653-.818 17.726 14.769 20.007 21.007z"/>
            <path fill="#FFD0CA" d="M140 154.827a70.446 70.446 0 0 1 18.75-18.472l-.918 6.954a81.294 81.294 0 0 1 24.148-8.487c1.475-.256 3.418-.22 3.922 1.205.396 1.131-.486 2.263-1.295 3.14a104.183 104.183 0 0 1-14 13.287 34.634 34.634 0 0 1-17.597 7.155 11.555 11.555 0 0 1-7-1.332c-2.15-1.263-3.227-3.81-2.645-6.261"/>
            <path fill="#B3248F" fill-rule="nonzero" d="M269.603 106.065a13.6 13.6 0 0 0-5.775 3.064 12.799 12.799 0 0 0-2.597 6.894l-10.787 66.914c-.49 3.046-.926 6.365.727 9.01 1.96 3.155 6.156 4.176 9.951 4.814a207.258 207.258 0 0 0 37.718 2.918 2.878 2.878 0 0 0 1.816-.456 2.669 2.669 0 0 0 .708-1.824 55.403 55.403 0 0 0-.309-15.01l-23.371-2.954c-2.016-.255-1.925 0-2.833-1.732a5.602 5.602 0 0 1-.418-2.9c.4-9.447-.109-19.532 3.232-28.432 2.87 8.954 4.631 25.952 4.795 35.308 22.59-.949 45.036-1.642 67.644-.62a270.199 270.199 0 0 1 2.434-40.543l8.88 19.022a19.943 19.943 0 0 1 2.579 9.119c-.146 3.903-2.58 7.696-1.69 11.508l28.693-.93-3.868-19.825a50.64 50.64 0 0 0-6.556-18.492l-14.019-26.354a21.523 21.523 0 0 0-4.177-6.073 21.028 21.028 0 0 0-5.647-3.374 120.581 120.581 0 0 0-46.67-10.414c-13.711-.182-27.821 7.058-40.46 11.362z"/>
            <path fill="#FFF" fill-rule="nonzero" d="M316.594 174.7c9.077-8.916 11.716-22.183 13.914-34.601l3.888-21.948a72.64 72.64 0 0 0 1.6-15.812 2.406 2.406 0 0 0-.492-1.588 2.554 2.554 0 0 0-1.9-.506c-10.062 0-26.175-3.934-27.864 9.332a114.023 114.023 0 0 0 3.026 42.038c.616 2.346 8.496 22.363 7.828 23.085z"/>
            <path fill="#FFD0CA" d="M309.37 93.134a18.547 18.547 0 0 0-.265 5.664c.275 1.35.803 2.633 1.556 3.78a11.954 11.954 0 0 0 7.795 6.04c2.899.43 5.762-.914 8.484-2.294a8.842 8.842 0 0 0 3.253-2.365 9.785 9.785 0 0 0 1.767-5.377 36.077 36.077 0 0 0-.46-7.67l-1.236-9.409a2.642 2.642 0 0 0-.354-1.146 1.39 1.39 0 0 0-.884-.466c-4.72-1.147-11.224-3.262-15.997-1.542-4.772 1.72-3.022 10.09-3.658 14.785z"/>
            <path fill="url(#j)" fill-rule="nonzero" d="M331 83.7s-8.248 16.346-16.534 14.91c-8.286-1.434-4.69-13.766-4.69-13.766L331 83.7z"/>
            <path fill="#FFD0CA" d="M334.419 64.17c1.054-1.604 2.663-3.426 4.557-2.939.795.317 1.43.941 1.767 1.734.335.792.343 1.687.02 2.486a16.597 16.597 0 0 1-2.859 4.255c-3.432 4.616-4.04 10.982-8.275 14.93a17.93 17.93 0 0 1-11.993 4.04 14.18 14.18 0 0 1-5.093-.632c-3.86-1.37-6.184-5.157-7.56-8.871a51.116 51.116 0 0 1-2.753-13.488c-.5-4.085-.184-8.23.93-12.19a14.274 14.274 0 0 1 8.006-9.015c6.167-2.398 13.494 1.028 17.32 6.275 3.824 5.247 4.95 11.847 5.736 18.23"/>
            <path fill="#7E3D8F" d="M302.465 56.76c0 .708-.38 1.434 0 2.07a1.553 1.553 0 0 0 1.917.598 3.82 3.82 0 0 0 1.628-1.452c1.592-2.177 2.767-4.717 4.937-6.368 2.17-1.651 5.897-1.815 7.38.326.091.173.221.322.38.436.268.098.563.098.831 0a9.8 9.8 0 0 1 9.496 2.794 13.633 13.633 0 0 1 3.472 9.235c0 1.016 1.266 4.59 2.279 4.282.29-.09.38-3.012.579-3.23.705-.798.741-1.052 1.447-1.814.209-.29.49-.521.813-.671.778-.29 1.574.326 2.406.508a3.111 3.111 0 0 0 3.364-2.268 8.5 8.5 0 0 0-.18-4.3 8.026 8.026 0 0 1-.128-4.282c.688-2.068 2.985-3.629 2.912-5.752a4.783 4.783 0 0 0-.56-1.814 16.973 16.973 0 0 0-4.793-6.024 15.79 15.79 0 0 0-2.731-4.137 5.742 5.742 0 0 0-4.576-1.814c-.76.109-1.501.417-2.26.472-3.021.2-5.427-3.43-8.393-2.776-.958.218-1.808.87-2.73 1.034-1.719.308-3.347-.962-5.083-.925-1.736.036-3.075 1.288-4.63 1.96-1.555.67-3.798.979-4.558 2.54-.325.652-.416 1.505-1.085 1.814a3.011 3.011 0 0 1-1.646 0 4.606 4.606 0 0 0-4.177 1.814 16.005 16.005 0 0 0-2.695 10.614 4.847 4.847 0 0 0 2.496 4.41c1.284.562 3.78.78 3.888 2.72z"/>
            <path fill="#FFF" fill-rule="nonzero" d="M318 107.184a9.703 9.703 0 0 0-5.83 4.581 27.016 27.016 0 0 0-2.598 6.935c.198-.755-1.805-3.701-2.184-4.527-.722-1.653-1.354-3.342-1.968-5.03-.794-2.21-3.284-6.559-2.111-8.858 2.797-5.444 12.615 4.707 14.691 6.899zM322 107.228c3.746 1.393 5.98 4.89 9.127 7.234.158.123.345.205.545.238a.983.983 0 0 0 .58-.255 12.535 12.535 0 0 0 3.992-5.74c.844-2.19 2.005-10.731-2.936-8.693a32.846 32.846 0 0 0-5.188 3.65 56.954 56.954 0 0 1-6.12 3.566z"/>
            <path fill="url(#k)" d="M316.393 139.284c-.62-6.23-.45-12.506.506-18.7a9.533 9.533 0 0 0 .116-3.61c-.544-2.437-3.091-4.405-3.013-6.878.116-3.249 4.588-5.09 8.088-4.151 1.712.474 3.12 1.61 3.865 3.117a5.384 5.384 0 0 1 .024 4.753c-.448.776-1.109 1.48-1.478 2.292a7.16 7.16 0 0 0 .603 5.416c1.827 4.747 4.044 29.476 3.888 31.516 0 1.516-3.46 8.34-4.024 9.766-3.345 8.339-7.292 11.21-8.886 11.895-1.244-10.217 1.361-25.072.311-35.416z"/>
            <path fill="#FFF" fill-rule="nonzero" d="M307.494 185.846a2.456 2.456 0 0 1 2.016.591c.171.263.268.561.282.868a28.098 28.098 0 0 1-.242 8.418 3.558 3.558 0 0 1-1.129 2.308c-.982.569-2.16.786-3.305.609l-4.758-.166a2.346 2.346 0 0 1-1.007-.203 1.623 1.623 0 0 1-.666-.831c-1.189-2.53-2.479-7.163-1.068-9.803 1.411-2.64 7.176-1.828 9.877-1.79z"/>
            <path fill="#FFD0CA" d="M319.717 185.72c.11.886-.375 1.736-1.175 2.06a13.368 13.368 0 0 0 4.945 1.398c3.35.567 6.596 1.661 9.629 3.245 2.183 1.146 4.422 2.798 4.814 5.207.093.303.093.63 0 .932a1.91 1.91 0 0 1-.578.622 12.331 12.331 0 0 1-7.464 1.418c-7.465-.136-15.34-.136-22.393-2.992a4.165 4.165 0 0 1-1.53-.932 3.408 3.408 0 0 1-.747-1.73c-.616-3.069 0-5.478 2.78-6.819a24.913 24.913 0 0 1 11.72-2.409z"/>
            <path fill="#3E3E54" fill-rule="nonzero" d="M297.433 368.738a9.053 9.053 0 0 0 2.702 3.282 35.797 35.797 0 0 0 9.876 6.897c4.618 1.865 9.766 1.865 14.768 1.734 1.825 0 3.87-.224 4.8-1.715.932-1.491.147-3.412-.711-4.94-3.396-6.06-7.905-11.727-9.42-18.475-.493-2.126-.748-4.493-2.41-5.966-3.65-3.188-12.887-2.032-15.881 1.678a15.859 15.859 0 0 0-2.52 6.674c-.638 3.095-2.464 7.737-1.204 10.831zM338.129 370.413a81.246 81.246 0 0 0 5.338 2.247c.469.238 1.013.296 1.525.162.35-.183.636-.465.818-.809l2.436-3.596c4.501 4.8 12.238 5.394 19.12 5.268 3.272 0 6.527-.126 9.782-.27 1.432 0 3.18-.36 3.72-1.618.539-1.259-.67-2.337-1.73-3.093-5.691-4.046-13.651-5.16-18.264-10.231-1.86-2.086-3.161-4.784-5.579-6.24a15.312 15.312 0 0 0-7.44-1.475c-4.165-.107-8.815-.503-9.298 3.956a101.048 101.048 0 0 0-.428 15.699zM363.863 188.421l16.892-66.721H453l-23.627 65.284-.691 7.296L340 196.7v-5.55z"/>
            <path fill="#FFD0CA" d="M568.044 46.171c-1.001 1.315-2.391 2.722-1.965 4.314.315 1.259 1.613 1.851 2.466 2.888 2.076 2.333 1.408 6.073 2.947 8.776a8.491 8.491 0 0 0 5.895 3.702c2.39.322 4.8.458 7.21.408a6.085 6.085 0 0 1 4.617 1.61c1.853 2.148.704 6.295 3.262 7.499.663.27 1.381.378 2.095.314a59.839 59.839 0 0 0 8.286-.63c.98-.05 1.92-.405 2.688-1.017a4.791 4.791 0 0 0 1.112-3.148 79.407 79.407 0 0 0-5.876-38.175 20.045 20.045 0 0 0-3.54-6.017 16.854 16.854 0 0 0-6.619-4.073 29.878 29.878 0 0 0-9.268-1.851 11.449 11.449 0 0 0-7.619 1.85c-7.118 5.685-.278 16.441-5.691 23.55z"/>
            <path fill="#7E3D8F" d="M562.007 17.904c-.047 1.36.137 2.717.545 4.016 1.053 3.007 3.994 5.078 5.083 8.086a11.448 11.448 0 0 1 4.92-6.34 7.46 7.46 0 0 0 2.831 3.818 4.31 4.31 0 0 1 1.398 1.207c.288.695.37 1.457.236 2.197a9.45 9.45 0 0 0 4.212 8.104c1.143.738 2.45 1.207 3.63 1.981a16.748 16.748 0 0 1 4.285 4.989c2.85 4.358 5.773 9.004 6.245 14.118.326 3.602-.581 7.384.49 10.806 1.565 4.583 6.134 7.468 10.983 6.933.36 5.494 3.551 10.416 8.44 13.02a17.131 17.131 0 0 0 15.704-.09 11.067 11.067 0 0 0 5.119-5.042 13.14 13.14 0 0 0 .835-5.69c-.163-6.016-2.051-12.283-6.626-16.209a5.963 5.963 0 0 1-1.507-1.584c-.817-1.531 0-3.332.78-4.917 3.367-8.134 1.25-17.487-5.3-23.411a8.166 8.166 0 0 1-2.124-2.27 6.795 6.795 0 0 1-.508-2.773c-.254-6.015-.545-12.354-3.758-17.486a22.712 22.712 0 0 0-13.397-9.203A54.464 54.464 0 0 0 587.949.849c-11.165.45-25.924 3.458-25.942 17.055z"/>
            <path fill="#FFD0CA" d="M554.362 116.618a16.417 16.417 0 0 1-5.071 3.19c-2.008.578-4.101.794-6.184.64-17.037-.402-34.658-4.487-47.791-15.265-2.572-2.097-5.144-4.54-8.427-5.033l3.028 6.328h-12.331a8.393 8.393 0 0 0-3.867.62 2.9 2.9 0 0 0-1.66 3.228c.32.74.846 1.372 1.514 1.824 3.648 2.954 7.497 5.926 12.094 6.765 2.28.42 4.633.274 6.95.493 5.253.51 10.105 2.9 14.884 5.142a429.62 429.62 0 0 0 26.54 11.434c4.451 1.824 9.248 3.447 13.918 2.371a24.19 24.19 0 0 0 6.585-2.936c12.769-7.294 25.738-14.68 35.77-25.403 3.904-4.176 7.479-9.118 7.68-14.917.164-4.669-2.846-9.994-7.589-11.215-4.742-1.222-9.12 3.939-12.422 7.13-8.28 8.224-14.702 18.108-23.621 25.604z"/>
            <path fill="#FFF" fill-rule="nonzero" d="M141.128 147.198a4.357 4.357 0 0 0-2.054.621c-.748.67-1.137 1.603-1.066 2.554a14.378 14.378 0 0 0 1.731 6.35 10.561 10.561 0 0 0 2.72 3.726c1.214 1.064 2.945 1.488 4.584 1.122 1.668-.673 2.98-1.912 3.653-3.451a1.61 1.61 0 0 0 .304-.949c0-.552-.57-.932-1.008-1.311-2.891-2.45-.818-4.987-2.226-7.523-1.407-2.536-4.108-1.45-6.638-1.139z"/>
            <path fill="#AAA" fill-rule="nonzero" d="M303 383.7h52v11h-52z"/>
            <path fill="#AAA" fill-rule="nonzero" d="M325 231.7h9v156h-9z"/>
            <path fill="url(#l)" fill-rule="nonzero" d="M336.061 66.65a1.397 1.397 0 0 0 0-.479 6.163 6.163 0 0 1 0-2.28 1.77 1.77 0 0 1 .433-.707c.27-.271.578-.428.895-.456a.334.334 0 0 1 .266 0 .848.848 0 0 1 .21.456 6.51 6.51 0 0 1 0 2.645c-.197 1-.532 1.913-.98 2.668-.356.672-.856 1.096-1.397 1.186a.34.34 0 0 1-.21 0 .475.475 0 0 1-.125-.25 2.106 2.106 0 0 1 0-1.574c.293-.388.754-.616.908-1.209z"/>
        </g>
        <g transform="translate(114 1)">
            <circle cx="43.5" cy="43.5" r="43.5" fill="#FFF" stroke="url(#m)"/>
            <g fill-rule="nonzero">
                <path fill="url(#n)" d="M13.739 36.657c-2.595 0-4.699 2.092-4.699 4.672 0 2.58 2.104 4.671 4.699 4.671 2.595 0 4.699-2.091 4.699-4.671-.007-2.578-2.107-4.665-4.7-4.672zM0 0v4.671h4.699l8.459 17.035-3.537 5.722a4.472 4.472 0 0 0-.588 2.22c0 3.128 2.151 4.672 5.067 4.672h27.475v-4.492h-26.9a.557.557 0 0 1-.588-.585c.062-.202.146-.397.25-.58l2.347-3.686H34.19a4.6 4.6 0 0 0 4.11-2.452L46.764 8.06a2.7 2.7 0 0 0 .236-1.169 2.24 2.24 0 0 0-.703-1.604 2.267 2.267 0 0 0-1.648-.616H9.871L7.638 0H0zm36.872 36.657c-2.594.002-4.696 2.094-4.695 4.674.001 2.58 2.105 4.67 4.7 4.669 2.595 0 4.698-2.092 4.698-4.671-.008-2.579-2.11-4.667-4.703-4.672z" transform="translate(20 21)"/>
                <path fill="#FFF" d="M50 34h-4v-4h-3v4h-4v3h4v4h3v-4h4z"/>
            </g>
        </g>
        <g transform="translate(384 59)">
            <circle cx="43.5" cy="43.5" r="43.5" fill="#FFF" stroke="url(#m)"/>
            <g fill-rule="nonzero">
                <path fill="#FFF" d="M31.72 61.04v-1.747a3.492 3.492 0 0 0-3.493-3.494 3.492 3.492 0 0 0-3.493 3.494v1.746h6.987zm35.808-9.608v13.11H20.367v-13.11h47.161z"/>
                <path fill="#AAB2BD" d="M28.227 55.8c-.304 0-.594.05-.874.123a3.484 3.484 0 0 1 2.62 3.37v1.746h1.748v-1.746a3.492 3.492 0 0 0-3.494-3.494zM28.227 42.69c-.304 0-.594.051-.874.124a3.484 3.484 0 0 1 2.62 3.37v1.746h1.748v-1.747a3.492 3.492 0 0 0-3.494-3.493z"/>
                <path fill="#FFF" d="M31.72 47.93v-1.747a3.492 3.492 0 0 0-3.493-3.493 3.492 3.492 0 0 0-3.493 3.493v1.747h6.987zm35.808-9.607v13.11H20.367v-13.11h47.161z"/>
                <path fill="url(#o)" d="M31.441 10.59h.873l-.873 5.24h-6.987l-.873-5.24h.873z" transform="translate(16 19)"/>
                <path fill="#8E0CBB" d="M16.873 22.6a.873.873 0 0 1-.873-.872 2.623 2.623 0 0 1 2.62-2.62.873.873 0 1 1 0 1.746.874.874 0 0 0-.873.874c0 .482-.39.873-.874.873z"/>
                <path fill="url(#m)" d="M55.022 3.6a.873.873 0 0 1-.874-.872.874.874 0 0 0-.873-.874.873.873 0 1 1 0-1.747 2.623 2.623 0 0 1 2.62 2.62c0 .483-.39.874-.873.874z" transform="translate(16 19)"/>
                <path fill="url(#p)" d="M53.275 1.854H2.62a.873.873 0 1 1 0-1.747h50.655a.873.873 0 1 1 0 1.747z" transform="translate(16 19)"/>
                <path fill="#E1E1E1" d="M19.52 22.6a.876.876 0 0 1-.878-.872c0-.483.386-.874.868-.874h.01a.873.873 0 1 1 0 1.747zM22.139 22.6a.876.876 0 0 1-.878-.872c0-.483.386-.874.868-.874h.01a.873.873 0 1 1 0 1.747zM24.762 22.6a.876.876 0 0 1-.878-.872c0-.483.386-.874.868-.874h.01a.873.873 0 1 1 0 1.747z"/>
                <path fill="url(#q)" d="M.873 49.893A.873.873 0 0 1 0 49.019V2.728a.873.873 0 1 1 1.747 0v46.291c0 .483-.39.874-.874.874zM55.022 49.893a.873.873 0 0 1-.874-.874V2.728a.873.873 0 1 1 1.747 0v46.291c0 .483-.39.874-.873.874z" transform="translate(16 19)"/>
                <path fill="url(#r)" d="M55.022 5.348H.873a.873.873 0 1 1 0-1.747h54.149a.873.873 0 1 1 0 1.747zM55.022 49.893H.873a.873.873 0 1 1 0-1.747h54.149a.873.873 0 1 1 0 1.747z" transform="translate(16 19)"/>
                <path fill="url(#s)" d="M24.453 16.701a.873.873 0 0 1-.86-.73l-.873-5.24a.872.872 0 0 1 .718-1.004.868.868 0 0 1 1.004.718l.873 5.24a.872.872 0 0 1-.862 1.016z" transform="translate(16 19)"/>
                <path fill="url(#t)" d="M31.441 16.701h-6.987a.873.873 0 1 1 0-1.746h6.987a.873.873 0 1 1 0 1.746z" transform="translate(16 19)"/>
                <path fill="url(#u)" d="M31.442 16.701a.872.872 0 0 1-.862-1.017l.872-5.24a.867.867 0 0 1 1.005-.717c.476.08.797.528.718 1.004l-.873 5.24a.873.873 0 0 1-.86.73z" transform="translate(16 19)"/>
                <path fill="url(#v)" d="M33.188 11.461h-10.48a.873.873 0 1 1 0-1.747h10.48a.873.873 0 1 1 0 1.747z" transform="translate(16 19)"/>
                <path fill="url(#w)" d="M24.452 11.461a.873.873 0 0 1-.726-1.358l1.746-2.62a.872.872 0 1 1 1.454.97l-1.746 2.62a.872.872 0 0 1-.728.388z" transform="translate(16 19)"/>
                <path fill="url(#x)" d="M31.443 11.461a.872.872 0 0 1-.728-.389l-1.746-2.62a.873.873 0 1 1 1.453-.969l1.747 2.62a.873.873 0 0 1-.726 1.358z" transform="translate(16 19)"/>
                <path fill="#7E3D8F" d="M67.528 52.3a.873.873 0 0 1-.873-.873V39.193H21.24v12.234a.873.873 0 1 1-1.747 0V38.32c0-.483.39-.874.874-.874h47.161c.483 0 .874.39.874.874v13.107c0 .483-.39.873-.874.873z"/>
                <path fill="#EFD6D3" d="M49.187 44.437H36.089a.873.873 0 1 1 0-1.747h13.098a.873.873 0 1 1 0 1.747zM42.193 47.059h-6.104a.873.873 0 1 1 0-1.747h6.104a.873.873 0 1 1 0 1.747zM59.666 46.183H55.3a.873.873 0 1 1 0-1.746h4.366a.873.873 0 1 1 0 1.746zM63.16 45.31h-.873a.873.873 0 1 1 0-1.747h.874a.873.873 0 1 1 0 1.747z"/>
                <path fill="#EFD6D3" d="M63.162 47.057a.874.874 0 0 1-.783-.483l-.873-1.747a.874.874 0 0 1 1.562-.782l.873 1.747a.874.874 0 0 1-.78 1.265z"/>
                <path fill="#EFD6D3" d="M63.16 47.057h-.873a.873.873 0 1 1 0-1.747h.874a.873.873 0 1 1 0 1.747z"/>
                <path fill="#7E3D8F" d="M67.528 65.41H20.367a.873.873 0 0 1-.874-.874V51.427a.873.873 0 1 1 1.747 0v12.236h45.415V51.427a.873.873 0 1 1 1.747 0v13.11c0 .481-.39.873-.874.873z"/>
                <path fill="#EFD6D3" d="M49.187 57.544H36.089a.873.873 0 1 1 0-1.747h13.098a.873.873 0 1 1 0 1.747zM42.193 60.166h-6.104a.873.873 0 1 1 0-1.747h6.104a.873.873 0 1 1 0 1.747zM59.666 59.29H55.3a.873.873 0 1 1 0-1.746h4.366a.873.873 0 1 1 0 1.747zM63.16 58.417h-.873a.873.873 0 1 1 0-1.746h.874a.873.873 0 1 1 0 1.746z"/>
                <path fill="#EFD6D3" d="M63.162 60.164a.874.874 0 0 1-.783-.483l-.873-1.747a.874.874 0 0 1 1.562-.781l.873 1.747a.874.874 0 0 1-.78 1.264z"/>
                <path fill="#EFD6D3" d="M63.16 60.164h-.873a.873.873 0 1 1 0-1.747h.874a.873.873 0 1 1 0 1.747z"/>
                <path fill="#7E3D8F" d="M67.528 52.3H20.367a.873.873 0 1 1 0-1.746h47.161a.873.873 0 1 1 0 1.746z"/>
                <path fill="url(#o)" d="M15.721 28.057a.873.873 0 0 1-.873-.874 2.623 2.623 0 0 0-2.62-2.62 2.623 2.623 0 0 0-2.62 2.62.873.873 0 1 1-1.747 0 4.372 4.372 0 0 1 4.367-4.366 4.372 4.372 0 0 1 4.367 4.366c0 .483-.39.874-.874.874z" transform="translate(16 19)"/>
                <path fill="url(#y)" d="M16.595 29.803H7.86a.873.873 0 1 1 0-1.746h8.734a.873.873 0 1 1 0 1.746z" transform="translate(16 19)"/>
                <path fill="url(#z)" d="M8.734 29.803a.873.873 0 0 1-.873-.873v-1.747a.873.873 0 1 1 1.747 0v1.747c0 .483-.39.873-.874.873zM15.721 29.803a.873.873 0 0 1-.873-.873v-1.747a.873.873 0 1 1 1.747 0v1.747c0 .483-.39.873-.874.873z" transform="translate(16 19)"/>
                <path fill="url(#A)" d="M12.228 24.563a.873.873 0 0 1-.873-.873v-.873a.873.873 0 1 1 1.746 0v.873c0 .483-.39.873-.873.873z" transform="translate(16 19)"/>
                <path fill="url(#o)" d="M15.721 41.164a.873.873 0 0 1-.873-.873 2.623 2.623 0 0 0-2.62-2.62 2.623 2.623 0 0 0-2.62 2.62.873.873 0 1 1-1.747 0 4.372 4.372 0 0 1 4.367-4.367 4.372 4.372 0 0 1 4.367 4.367c0 .483-.39.873-.874.873z" transform="translate(16 19)"/>
                <path fill="url(#y)" d="M16.595 42.91H7.86a.873.873 0 1 1 0-1.746h8.734a.873.873 0 1 1 0 1.747z" transform="translate(16 19)"/>
                <path fill="url(#z)" d="M8.734 42.91a.873.873 0 0 1-.873-.872V40.29a.873.873 0 1 1 1.747 0v1.747c0 .483-.39.873-.874.873zM15.721 42.91a.873.873 0 0 1-.873-.872V40.29a.873.873 0 1 1 1.747 0v1.747c0 .483-.39.873-.874.873z" transform="translate(16 19)"/>
                <path fill="url(#B)" d="M12.228 37.67a.873.873 0 0 1-.873-.873v-.875a.873.873 0 1 1 1.746 0v.875c0 .483-.39.874-.873.874z" transform="translate(16 19)"/>
            </g>
        </g>
    </g>
</svg>
